<svg width="35" height="35" viewBox="0 0 35 35" fill="none" xmlns="http://www.w3.org/2000/svg">
<g id="mdi:password">
<path id="Vector" d="M17.5 24.5833C18.2514 24.5833 18.9721 24.2848 19.5035 23.7534C20.0348 23.2221 20.3333 22.5014 20.3333 21.75C20.3333 20.9985 20.0348 20.2778 19.5035 19.7465C18.9721 19.2151 18.2514 18.9166 17.5 18.9166C16.7485 18.9166 16.0279 19.2151 15.4965 19.7465C14.9652 20.2778 14.6667 20.9985 14.6667 21.75C14.6667 22.5014 14.9652 23.2221 15.4965 23.7534C16.0279 24.2848 16.7485 24.5833 17.5 24.5833ZM26 11.8333C26.7514 11.8333 27.4721 12.1318 28.0035 12.6632C28.5348 13.1945 28.8333 13.9152 28.8333 14.6666V28.8333C28.8333 29.5847 28.5348 30.3054 28.0035 30.8368C27.4721 31.3681 26.7514 31.6666 26 31.6666H8.99999C8.24854 31.6666 7.52787 31.3681 6.99652 30.8368C6.46517 30.3054 6.16666 29.5847 6.16666 28.8333V14.6666C6.16666 13.9152 6.46517 13.1945 6.99652 12.6632C7.52787 12.1318 8.24854 11.8333 8.99999 11.8333H10.4167V8.99996C10.4167 7.12134 11.1629 5.31967 12.4913 3.99129C13.8197 2.6629 15.6214 1.91663 17.5 1.91663C18.4302 1.91663 19.3513 2.09984 20.2107 2.45581C21.0701 2.81178 21.8509 3.33354 22.5087 3.99129C23.1664 4.64903 23.6882 5.4299 24.0441 6.28928C24.4001 7.14867 24.5833 8.06976 24.5833 8.99996V11.8333H26ZM17.5 4.74996C16.3728 4.74996 15.2918 5.19773 14.4948 5.99476C13.6978 6.79179 13.25 7.87279 13.25 8.99996V11.8333H21.75V8.99996C21.75 7.87279 21.3022 6.79179 20.5052 5.99476C19.7082 5.19773 18.6272 4.74996 17.5 4.74996Z" fill="#D95182"/>
</g>
</svg>
